<svg xmlns="http://www.w3.org/2000/svg" viewBox="0 0 256 256" width="256" height="256" role="img" aria-label="tokisuke"><title>tokisuke</title><rect width="256" height="256" rx="58" fill="#27498C"/><g transform="translate(31 -7) scale(1.0)"><path fill="#FFFFFF" d="M89.9 148Q89.9 126.5 105.1 111.2Q120.4 96 141.9 96Q163.4 96 178.7 111.2Q193.9 126.5 193.9 148Q193.9 169.5 178.7 184.8Q163.4 200 141.9 200Q120.4 200 105.1 184.8Q89.9 169.5 89.9 148ZM49.4 73.6V96H69.9Q72.5 96 74.9 97Q77.3 98 79.1 99.8Q80.9 101.6 81.9 104Q82.9 106.4 82.9 109Q82.9 111.6 81.9 114Q80.9 116.4 79.1 118.2Q77.3 120 74.9 121Q72.5 122 69.9 122H49.4V155.8Q49.4 163.3 54.7 168.7Q60.1 174 67.6 174Q70.2 174 72.6 175Q75 176 76.8 177.8Q78.6 179.6 79.6 182Q80.6 184.4 80.6 187Q80.6 189.6 79.6 192Q78.6 194.4 76.8 196.2Q75 198 72.6 199Q70.2 200 67.6 200Q49.3 200 36.3 187.1Q23.4 174.1 23.4 155.8V122H13Q10.4 122 8 121Q5.6 120 3.8 118.2Q2 116.4 1 114Q0 111.6 0 109Q0 106.4 1 104Q2 101.6 3.8 99.8Q5.6 98 8 97Q10.4 96 13 96H23.4V73.6Q23.4 71 24.4 68.6Q25.4 66.2 27.2 64.4Q29 62.6 31.4 61.6Q33.8 60.6 36.4 60.6Q39 60.6 41.4 61.6Q43.8 62.6 45.6 64.4Q47.4 66.2 48.4 68.6Q49.4 71 49.4 73.6ZM115.9 148Q115.9 158.8 123.5 166.4Q131.1 174 141.9 174Q152.7 174 160.3 166.4Q167.9 158.8 167.9 148Q167.9 137.2 160.3 129.6Q152.7 122 141.9 122Q131.1 122 123.5 129.6Q115.9 137.2 115.9 148Z"/><path fill="#F27A63" d="M136.1 143.1 149.4 127.3Q150.4 126.2 151.7 125.5Q153.1 124.8 154.6 124.7Q156 124.6 157.5 125Q158.9 125.5 160.1 126.4Q161.2 127.4 161.9 128.7Q162.6 130.1 162.7 131.6Q162.8 133 162.4 134.5Q161.9 135.9 161 137.1L147.7 152.9Q146.7 154 145.4 154.7Q144 155.4 142.5 155.5Q141.1 155.6 139.6 155.2Q138.2 154.7 137 153.8Q135.9 152.8 135.2 151.5Q134.5 150.1 134.4 148.6Q134.3 147.2 134.7 145.7Q135.2 144.3 136.1 143.1Z"/><circle cx="141.9" cy="148" r="8.3" fill="#F27A63"/></g></svg>
